# xmcd
#
# Track frame offsets:
#	150
#	12913
#	20928
#	31550
#	42825
#	48725
#	58738
#	68918
#	78003
#	89240
#
# Disc length: 1296 seconds
#
# Revision: 1
# Processed by: cddbd v1.5.1PL2 Copyright (c) Steve Scherf et al.
# Submitted via: audiograbber 1.83.01
#
DISCID=80050e0a
DTITLE=Johnny Cash - Lonesome Me
DYEAR=1900
DGENRE=
TTITLE0=Folsom Prison Blues
TTITLE1=I Can´t Help It
TTITLE2=You Win Again
TTITLE3=Mean Eyed Cat
TTITLE4=My Treasure
TTITLE5=Hey Porter
TTITLE6=Straight A´s in Love
TTITLE7=Two Timin´ Woman
TTITLE8=Oh Lonesome Me
TTITLE9=Sugartime
EXTD=
EXTT0=
EXTT1=
EXTT2=
EXTT3=
EXTT4=
EXTT5=
EXTT6=
EXTT7=
EXTT8=
EXTT9=
PLAYORDER=
